<svg xmlns="http://www.w3.org/2000/svg" viewBox="0 0 261 39.38"><defs><style>.cls-1{fill:#b12828;}.cls-2{fill:#848484;}</style></defs><g id="Camada_2" data-name="Camada 2"><g id="Camada_1-2" data-name="Camada 1"><path class="cls-1" d="M90,15.4V6c0-1.18.19-1.36,1.36-1.36,2.32,0,2.27-.31,2.27,2.25,0,5.13,0,10.27,0,15.4,0,1.34-.06,2.68-.18,4a6.81,6.81,0,0,1-5,6.4,17.35,17.35,0,0,1-10.14.08,6.41,6.41,0,0,1-4.9-6A72.12,72.12,0,0,1,73,19.48V6.09c0-1.24.18-1.43,1.39-1.41,2.37,0,2.37-.45,2.37,2.4q0,8.16,0,16.32A16.09,16.09,0,0,0,77,25.9,4.3,4.3,0,0,0,80.79,30a13.42,13.42,0,0,0,5.32,0c2.5-.51,3.66-2,3.75-5,.1-3.17,0-6.36,0-9.54Z"></path><path class="cls-1" d="M134.82,4.23a23.52,23.52,0,0,1,5.54.73c1,.3,1.2.62,1,1.66,0,.24-.12.48-.16.73-.15.77-.57,1.06-1.38.89a26.38,26.38,0,0,0-6.8-.7,11,11,0,0,0-1.82.21c-2,.4-2.93,1.5-3.2,3.64a3.83,3.83,0,0,0,2.23,4.33,34.06,34.06,0,0,0,5.24,1.69,18.75,18.75,0,0,1,4.18,1.65,5.13,5.13,0,0,1,2.65,3.76,11.18,11.18,0,0,1-.39,5.93,6.78,6.78,0,0,1-5.68,4.36,24.16,24.16,0,0,1-11.48-.79c-1-.33-1.22-.72-1-1.76.07-.27.15-.53.24-.8.32-.92.64-1.13,1.57-.82a20.66,20.66,0,0,0,7.71,1.2,9.34,9.34,0,0,0,2.87-.53,3.74,3.74,0,0,0,2.47-3.54c.12-1.75-.33-3.2-2-4a41.08,41.08,0,0,0-6-1.93l-.48-.14c-5.29-1.54-7.51-6.44-5.22-11.48C126,6.06,128,5,130.49,4.52A20.3,20.3,0,0,1,134.82,4.23Z"></path><path class="cls-1" d="M61.75,4.24a27,27,0,0,1,5.14.56C68,5.07,68.1,5.29,68,6.39c0,.11,0,.22,0,.33-.27,1.34-.54,1.57-1.87,1.28a25.8,25.8,0,0,0-5.4-.51A11.33,11.33,0,0,0,56.87,8a5.31,5.31,0,0,0-3.2,2.87,13.41,13.41,0,0,0-1.18,5.17c-.16,3.18-.26,6.37.73,9.45S56.07,30,59.3,30.16a24.87,24.87,0,0,0,7.53-.89c1.1-.28,1.33-.13,1.6.92.37,1.49.21,1.79-1.29,2.22a25.17,25.17,0,0,1-9.84.89c-4.29-.51-7.1-3-8.06-7.43a31.11,31.11,0,0,1,.15-14.17C50.5,7.14,53.3,4.81,58,4.37A24.79,24.79,0,0,1,61.75,4.24Z"></path><path class="cls-2" d="M201.72,18.83c0-3.46,0-6.92,0-10.38,0-2.94.8-3.72,3.74-3.72q5.31,0,10.62,0c.41,0,.87-.09,1.1.41.32.68-.06,1.23-.88,1.23H205.5c-1.62,0-1.95.33-1.95,2,0,2.76,0,5.52,0,8.28,0,.64.18.8.8.79,3.52,0,7,0,10.55,0,.54,0,1.07,0,1.08.78s-.45.89-1.08.89c-3.52,0-7,0-10.55,0-.61,0-.8.13-.8.78,0,3.15,0,6.3,0,9.46,0,1.56.44,2,2,2,3.76,0,7.53,0,11.29,0,.73,0,1,.24,1,1s-.55.68-1,.68c-2.71,0-5.42,0-8.12,0a34.27,34.27,0,0,1-4.18-.07c-2.08-.26-2.71-1-2.73-3.15,0-3.35,0-6.7,0-10Z"></path><path class="cls-2" d="M229,19.53c0-4.13,0-8.25,0-12.38,0-.64-.18-.8-.8-.79-2.5,0-5,0-7.53,0-.55,0-1-.06-1-.77s.4-.89,1-.89h18.41c.62,0,1,.15,1,.89s-.47.76-1,.76c-2.48,0-5,0-7.45,0-.66,0-.83.19-.83.84q0,12.35,0,24.69c0,.53.08,1.1-.74,1.13s-1.07-.1-1.07-1Z"></path><path class="cls-1" d="M43.1.28c-.25-.09-.57,0-.75-.28h-39C1.64.25.37,1,0,2.85V4.52A4.45,4.45,0,0,0,3,7.16c.46.11.21.36.17.56a3.42,3.42,0,0,0,1.63,3.86,4.68,4.68,0,0,0,3,.68c.75-.06,1,.15,1,.94,0,7.19,0,14.39,0,21.59,0,1,.45,1.56,1.22,1.54s1.14-.54,1.14-1.52c0-7.22,0-14.45,0-21.68,0-.68.17-.89.88-.88,2.65,0,5.3,0,8,0,1.33,0,1.16-.16,1.16,1.15V37.69a1.8,1.8,0,0,0,.16,1.14,1.13,1.13,0,0,0,1.31.49A1.19,1.19,0,0,0,23.44,38c0-8.28,0-16.57,0-24.85,0-.76.2-.92.92-.91,2.93,0,5.86.05,8.79,0,.81,0,1.07.14,1.07,1,0,7.2,0,14.4,0,21.6,0,.92.47,1.47,1.22,1.46s1.14-.53,1.14-1.43V20.51c0-2.51,0-5,0-7.54,0-.53.13-.75.7-.71a12.57,12.57,0,0,0,1.84,0A3.66,3.66,0,0,0,42.53,8c-.15-.65,0-.8.58-1a3.64,3.64,0,0,0,2.58-3.36A3.77,3.77,0,0,0,43.1.28ZM39.43,9.67a2.66,2.66,0,0,1-1.22.23H7.42c-1.14,0-2-.54-2-1.25s.85-1.3,2-1.3H38a3,3,0,0,1,1.47.24,1.19,1.19,0,0,1,.76,1A1.17,1.17,0,0,1,39.43,9.67Zm3-4.95A3.66,3.66,0,0,1,40.81,5H4.58a2.67,2.67,0,0,1-1.67-.43,1,1,0,0,1,0-1.77A2.8,2.8,0,0,1,4.6,2.35H41a3.18,3.18,0,0,1,1.46.25c.45.22.84.53.82,1.07A1.22,1.22,0,0,1,42.45,4.72Z"></path><path class="cls-1" d="M169.39,11.57c-.74-3.7-2.66-6.28-6.54-7a22.31,22.31,0,0,0-6.92-.18c-4.43.57-7.22,2.94-8.32,7.29a30.79,30.79,0,0,0,.09,15,8.15,8.15,0,0,0,6.65,6.41,21.85,21.85,0,0,0,7,.16c4.53-.51,7-3.2,8-7.46a32.86,32.86,0,0,0,.73-7.12A38.39,38.39,0,0,0,169.39,11.57Zm-4,14.1a5.76,5.76,0,0,1-5.67,4.46,17.23,17.23,0,0,1-3.59-.1,5.57,5.57,0,0,1-4.67-4.12,17.45,17.45,0,0,1-.73-4.36,29.05,29.05,0,0,1,.53-9c.87-3.38,2.88-5,6.34-5.06.73,0,1.45,0,2.18,0,3.43.15,5.3,1.81,5.93,5.2a40.94,40.94,0,0,1,.45,5.93A27.15,27.15,0,0,1,165.4,25.67Z"></path><path class="cls-1" d="M120.1,30.78q-2.67-4.77-5.39-9.52c-.34-.6-.47-.9.36-1.22a6.42,6.42,0,0,0,3.91-4.2,11.09,11.09,0,0,0,.34-4.72C119,7.94,117.26,6,114.2,5.3a37.15,37.15,0,0,0-10.58-.43A2.58,2.58,0,0,0,101.22,7,9.44,9.44,0,0,0,101,9.23V20.1c0,3.52,0,7,0,10.55,0,2.77.12,2.31,2.3,2.34,1.28,0,1.46-.17,1.46-1.43,0-3.27,0-6.53,0-9.79,0-.55.13-.71.69-.7,1.5,0,3,0,4.51,0a.94.94,0,0,1,1,.58c1.76,3.32,3.6,6.6,5.31,10A2.32,2.32,0,0,0,118.84,33C121,32.88,121.18,32.68,120.1,30.78ZM105.17,17.94c-.51,0-.42-.33-.42-.62V13.39c0-1.28,0-2.56,0-3.84s.4-1.54,1.5-1.53a40.17,40.17,0,0,1,5.59.17,3.85,3.85,0,0,1,3.68,3.92,8.74,8.74,0,0,1-.07,2.17c-.34,2-1.5,3-3.78,3.42A41.65,41.65,0,0,1,105.17,17.94Z"></path><path class="cls-2" d="M190.36,18.35l-.44-.17c0-.05,0-.08.07-.09l.75-.36a5.09,5.09,0,0,0,2.93-3.92,11.83,11.83,0,0,0,.16-2.91A5.75,5.75,0,0,0,188.18,5c-1-.08-2.05-.21-3.08-.24a43.75,43.75,0,0,0-6.27.08,2.1,2.1,0,0,0-1.93,1.7,9.28,9.28,0,0,0-.24,2.4q0,9.8,0,19.58c0,.67,0,1.34.1,2A2.21,2.21,0,0,0,179,32.81a42.71,42.71,0,0,0,9.85-.24,6.36,6.36,0,0,0,4.89-3.12,9,9,0,0,0,1-4.43C194.79,22.09,193.93,19.49,190.36,18.35Zm-11.89-6c0-1.42,0-2.84,0-4.27s.45-1.75,1.78-1.74c2.31,0,4.62,0,6.93.13,3,.22,4.75,2,4.82,5a10.57,10.57,0,0,1-.18,2.25,4.25,4.25,0,0,1-3.93,3.51c-2.95.29-5.9.06-8.86.15-.54,0-.57-.26-.56-.67C178.48,15.29,178.47,13.84,178.47,12.39Zm14.3,14.1c-.5,2.86-2.05,4.29-5,4.61a65,65,0,0,1-7.77.17c-1.05,0-1.5-.58-1.51-1.8,0-1.65,0-3.29,0-4.94s0-3.23,0-4.85c0-.39.05-.64.53-.62,3.09.09,6.19-.21,9.28.19a5,5,0,0,1,4.6,5.07A11.2,11.2,0,0,1,192.77,26.49Z"></path><path class="cls-2" d="M260.72,31.65c-1-2.82-2-5.62-3-8.43q-3-8.53-6-17.08c-.28-.77-.59-1.55-1.61-1.57-.85,0-1.37.36-1.75,1.39Q243.68,18.88,239,31.79c-.12.33-.35.71,0,1a1.25,1.25,0,0,0,1.2.15c.47-.1.56-.57.7-1,1-2.68,1.91-5.35,2.82-8a.91.91,0,0,1,1.07-.73c1.7,0,3.4,0,5.1,0s3.29,0,4.94,0a1.11,1.11,0,0,1,1.3.9c.91,2.69,1.89,5.36,2.86,8a1.13,1.13,0,0,0,1.63.8C261.33,32.61,260.87,32.07,260.72,31.65ZM248.36,21.59c-1.08,0-2.17,0-3.25,0-.4,0-.55-.06-.39-.51,1.71-4.77,3.39-9.54,5.09-14.3,0-.08.1-.13.22-.28,1.73,5,3.45,10,5.19,15.08Z"></path></g></g></svg>